<svg id="Capa_1" data-name="Capa 1" xmlns="http://www.w3.org/2000/svg" viewBox="0 0 176.6 99.17"><defs><style>.cls-1{fill:#fff;}.cls-1,.cls-2,.cls-3{fill-rule:evenodd;}.cls-2{fill:#2b2f73;}.cls-3,.cls-5{fill:#28a896;}.cls-4{fill:#2e2d77;}.cls-6{fill:#f6f6f6;}</style></defs><path class="cls-1" d="M287.45,139.18v0l-27,17-10.93,6.71c-5.48,3.37-11.15.44-12.31-3.61-1.12-3.88.75-7.83,7.8-12.16l26.71-16.39C276.64,133.51,281.76,136.28,287.45,139.18Z" transform="translate(-114.5 -93.8)"/><path class="cls-2" d="M290.94,139.18v1.95c-9.48,5.94-19.44,11.84-28.7,18l-10.92,6.71a13.8,13.8,0,0,1-3.39,1.51,11.93,11.93,0,0,1-7.62-.32,11,11,0,0,1-5.42-4.44,9.73,9.73,0,0,1-1.06-2.38,10.5,10.5,0,0,1,1.22-8.65c1.49-2.48,4.1-4.95,8.13-7.43l28.45-17.46,1.78,1c2.38,1.34,4.87,2.72,7.53,4.15,2.46,1.33,5.14,2.73,8.09,4.23l1.91,1v2.14Zm-32.32,14,21.86-13.72L277.64,138q-2.92-1.58-5.86-3.22l-25,15.33c-3,1.86-4.87,3.53-5.79,5.06a3.83,3.83,0,0,0-.47,3.18,2.23,2.23,0,0,0,.29.65,4,4,0,0,0,2,1.59,5.09,5.09,0,0,0,3.2.1,6.62,6.62,0,0,0,1.67-.75Z" transform="translate(-114.5 -93.8)"/><path class="cls-2" d="M290.89,128.63l-32.27-20-10.93-6.71a6.62,6.62,0,0,0-1.67-.75,5.09,5.09,0,0,0-3.2.1,4,4,0,0,0-2,1.59,2.23,2.23,0,0,0-.29.65,3.83,3.83,0,0,0,.47,3.18c.92,1.53,2.77,3.2,5.79,5.06l.65.39c14.94,9.18,26.12,16,41.58,23.92l-3.16,6.21c-15.58-7.93-26.9-14.89-42.05-24.19l-.64-.4c-4-2.47-6.64-4.94-8.13-7.42a10.5,10.5,0,0,1-1.22-8.65,9.73,9.73,0,0,1,1.06-2.38,11,11,0,0,1,5.42-4.44,11.93,11.93,0,0,1,7.62-.32A13.8,13.8,0,0,1,251.32,96l10.92,6.71,28.86,17.88h-.16v8Z" transform="translate(-114.5 -93.8)"/><path class="cls-3" d="M118,122.46v0l27-17,10.93-6.71c5.48-3.36,11.16-.44,12.32,3.62,1.11,3.88-.76,7.82-7.81,12.15l-26.71,16.4C128.79,128.12,123.68,125.36,118,122.46Z" transform="translate(-114.5 -93.8)"/><path class="cls-1" d="M114.5,122.46v-1.95c9.47-6,19.43-11.84,28.69-18l10.93-6.71a13.53,13.53,0,0,1,3.38-1.5,11.93,11.93,0,0,1,7.62.31A11.09,11.09,0,0,1,170.54,99a9.84,9.84,0,0,1,1.06,2.37,10.49,10.49,0,0,1-1.21,8.65c-1.5,2.49-4.11,5-8.14,7.43L133.81,135l-1.79-1c-2.38-1.34-4.86-2.71-7.53-4.15-2.46-1.32-5.14-2.72-8.09-4.23l-1.9-1v-2.13Zm32.31-14L125,122.15l2.84,1.51c2,1.06,3.91,2.13,5.87,3.23l25-15.34c3-1.85,4.87-3.52,5.79-5.06a3.85,3.85,0,0,0,.48-3.17,3.23,3.23,0,0,0-.29-.66,4,4,0,0,0-2-1.58,5,5,0,0,0-3.2-.1,7,7,0,0,0-1.67.74Z" transform="translate(-114.5 -93.8)"/><path class="cls-1" d="M114.5,133l32.31,20,10.93,6.71a6.58,6.58,0,0,0,1.67.74,5,5,0,0,0,3.2-.1,4.07,4.07,0,0,0,2-1.58,3.23,3.23,0,0,0,.29-.66,3.86,3.86,0,0,0-.48-3.17c-.92-1.54-2.77-3.21-5.79-5.06l-.65-.4c-14.94-9.18-26.11-16-41.58-23.92l3.16-6.21c15.58,7.94,26.9,14.89,42.05,24.19l.64.4c4,2.47,6.64,4.94,8.14,7.43A10.49,10.49,0,0,1,171.6,160a9.84,9.84,0,0,1-1.06,2.37,11.09,11.09,0,0,1-5.42,4.45,11.93,11.93,0,0,1-7.62.31,13.22,13.22,0,0,1-3.38-1.51l-10.93-6.7L114.5,141.16Z" transform="translate(-114.5 -93.8)"/><path class="cls-4" d="M172,151.75l18.45-41.63h9.41c.5,2.21,1,4.71,1.45,7.51s.88,5.74,1.26,8.81.71,6.12,1,9.18.51,6,.68,8.73.26,5.23.27,7.4h-6.21q0-2.7-.16-6.36c-.12-2.44-.3-5-.52-7.76s-.49-5.48-.8-8.22-.61-5.35-.93-7.81-.64-4.61-1-6.44h-.52l-15.91,36.59Zm7.7-10.14,1.2-5.56H202l-1.21,5.56Z" transform="translate(-114.5 -93.8)"/><path class="cls-5" d="M214.4,152.33q-7.22,0-10.24-3.53t-1.83-10.41l5-28.24h6.09l-5,28.24c-.49,2.81-.18,4.94.91,6.39s2.95,2.16,5.57,2.16a7.25,7.25,0,0,0,5.49-2.15,12,12,0,0,0,2.8-6.4l5-28.24h6.09l-5,28.24q-1.23,7-5,10.46A14,14,0,0,1,214.4,152.33Z" transform="translate(-114.5 -93.8)"/><path class="cls-6" d="M116.18,192.66l6.41-22.19h4.84l6.41,22.19h-4l-4.7-17.86h-.28l-4.71,17.86Zm3.13-4.69V184.5h11.25V188Z" transform="translate(-114.5 -93.8)"/><path class="cls-6" d="M144.21,193q-7.29,0-7.28-7.43V170.47h3.76v15.07a4.21,4.21,0,0,0,.87,2.89,3.45,3.45,0,0,0,2.71,1q3.58,0,3.58-3.87V170.47h3.76v15.07c0,2.47-.62,4.33-1.88,5.57A7.54,7.54,0,0,1,144.21,193Z" transform="translate(-114.5 -93.8)"/><path class="cls-6" d="M175.45,192.66V170.47h3.77v22.19Zm3.55,0v-3.55h2a6.08,6.08,0,0,0,4.81-1.82,8.05,8.05,0,0,0,1.6-5.41c0-2.6-.54-4.57-1.6-5.88a5.82,5.82,0,0,0-4.81-2h-1.92l-.37-3.55H181q10.32,0,10.31,11.41,0,10.78-10.31,10.78Z" transform="translate(-114.5 -93.8)"/><path class="cls-6" d="M195,192.66V170.47h3.77v22.19Zm0-18.72v-3.47h15v3.47Zm0,9.35v-3.47h12.19v3.47Zm0,9.37v-3.47h15v3.47Z" transform="translate(-114.5 -93.8)"/><path class="cls-6" d="M220.55,193a20,20,0,0,1-3.61-.31,14.64,14.64,0,0,1-3.14-.91l.5-3.79a19.6,19.6,0,0,0,3.38,1.11,13.58,13.58,0,0,0,3.12.39,4.94,4.94,0,0,0,2.84-.67,2.21,2.21,0,0,0,1-1.94,2.76,2.76,0,0,0-1.91-2.55l-3.45-1.64a9.73,9.73,0,0,1-3.59-2.7,5.91,5.91,0,0,1-1.25-3.71,5.62,5.62,0,0,1,1.85-4.5,7.79,7.79,0,0,1,5.24-1.59,10.54,10.54,0,0,1,3.91.7,9.87,9.87,0,0,1,3.28,2.1l-2.58,2.84a10.07,10.07,0,0,0-2.34-1.6,5.16,5.16,0,0,0-2.25-.54,3.57,3.57,0,0,0-2.29.66,2.37,2.37,0,0,0-.81,1.93,2.32,2.32,0,0,0,.56,1.54,5,5,0,0,0,1.6,1.2l3.11,1.55a10.89,10.89,0,0,1,3.66,2.74,5.48,5.48,0,0,1,1.28,3.58,5.37,5.37,0,0,1-2.06,4.55A9.82,9.82,0,0,1,220.55,193Z" transform="translate(-114.5 -93.8)"/><path class="cls-6" d="M233.67,173.88v-3.41h13.82v3.41Zm0,18.78v-3.42h13.82v3.42Zm5,0V170.47h3.79v22.19Z" transform="translate(-114.5 -93.8)"/><path class="cls-6" d="M261.44,193q-5.06,0-7.57-2.86t-2.53-8.57q0-5.43,2.62-8.4a9.26,9.26,0,0,1,7.35-3,10.6,10.6,0,0,1,4.14.74,5.84,5.84,0,0,1,2.67,2.12l-2.48,2.72a4.87,4.87,0,0,0-1.81-1.53,5,5,0,0,0-2.33-.55,5.56,5.56,0,0,0-4.59,2,8.82,8.82,0,0,0-1.63,5.7c0,2.69.55,4.7,1.64,6.05a5.91,5.91,0,0,0,4.89,2,10.82,10.82,0,0,0,2.62-.29l1.85-.49,1.38,3.36q-.68.19-2.37.57A18.67,18.67,0,0,1,261.44,193ZM260,184.8v-3.47h7.56v3.47Zm4,7.24V181.33h3.69V192Z" transform="translate(-114.5 -93.8)"/><path class="cls-6" d="M271.89,192.66V170.47h3.67v22.19Zm9,0L276,175.5h-1.61v-5h2.85l4.89,17.16h.95v5Zm1.72,0V170.47h3.67v22.19Z" transform="translate(-114.5 -93.8)"/></svg>